<!DOCTYPE svg PUBLIC "-//W3C//DTD SVG 1.1//EN" "http://www.w3.org/Graphics/SVG/1.1/DTD/svg11.dtd">
<!-- Uploaded to: SVG Repo, www.svgrepo.com, Transformed by: SVG Repo Mixer Tools -->
<svg version="1.1" id="Layer_1" xmlns="http://www.w3.org/2000/svg" xmlns:xlink="http://www.w3.org/1999/xlink" viewBox="0 0 512.001 512.001" xml:space="preserve" width="800px" height="800px" fill="#000000">
<g id="SVGRepo_bgCarrier" stroke-width="0"/>
<g id="SVGRepo_tracerCarrier" stroke-linecap="round" stroke-linejoin="round"/>
<g id="SVGRepo_iconCarrier"> <polygon style="fill:#F7931E;" points="329.59,295.626 289.965,256.001 329.59,216.375 295.626,182.41 256.001,222.035 216.374,182.41 182.41,216.375 222.035,256.001 182.41,295.626 216.374,329.591 256.001,289.965 295.626,329.591 "/> <polyline style="fill:#F7931E;" points="256.001,222.035 216.374,182.41 182.41,216.375 222.035,256.001 182.41,295.626 216.374,329.591 256.001,289.965 "/> <polygon style="fill:#7AC943;" points="167.939,7.828 7.827,7.828 7.827,167.939 39.85,167.939 39.85,39.85 167.939,39.85 "/> <g> <polygon style="fill:#7AC943;" points="344.061,7.828 504.173,7.828 504.173,167.939 472.15,167.939 472.15,39.85 344.061,39.85 "/> <polygon style="fill:#7AC943;" points="167.939,504.173 7.827,504.173 7.827,344.062 39.85,344.062 39.85,472.151 167.939,472.151 "/> </g> <polygon style="fill:#7AC943;" points="344.061,504.173 504.173,504.173 504.173,344.062 472.15,344.062 472.15,472.151 344.061,472.151 "/> <path d="M47.677,175.766H0V0.001h175.766v47.677H47.677V175.766z M15.655,160.112h16.368V32.023h128.089V15.655H15.655V160.112z"/> <path d="M512,175.766h-47.678V47.677H336.233V0.001H512L512,175.766L512,175.766z M479.978,160.112h16.369V15.655H351.888v16.368 h128.09V160.112z"/> <path d="M175.766,512H0V336.235h47.677v128.089h128.089L175.766,512L175.766,512z M15.655,496.346h144.456v-16.368H32.022V351.889 H15.655V496.346z"/> <path d="M512,512H336.233v-47.677h128.09V336.235h47.678V512H512z M351.888,496.346h144.458V351.889h-16.369v128.089H351.888 V496.346z"/> <path d="M295.626,340.661l-39.626-39.625l-39.625,39.625l-45.034-45.034l39.625-39.625l-39.625-39.625l45.034-45.034l39.625,39.625 l39.626-39.625l45.033,45.034l-39.626,39.625l39.626,39.625L295.626,340.661z M193.479,295.626l22.896,22.896l39.625-39.625 l39.626,39.625l22.896-22.896l-39.626-39.625l39.626-39.625l-22.896-22.896l-39.626,39.625l-39.625-39.625l-22.896,22.896 l39.625,39.625L193.479,295.626z"/> <rect x="247.647" y="352.012" width="16.698" height="15.655"/> <rect x="352.012" y="247.648" width="15.655" height="16.698"/> <rect x="247.647" y="144.327" width="16.698" height="15.655"/> <rect x="144.326" y="247.648" width="15.655" height="16.698"/> </g>
</svg>