<!DOCTYPE svg PUBLIC "-//W3C//DTD SVG 1.1//EN" "http://www.w3.org/Graphics/SVG/1.1/DTD/svg11.dtd">
<!-- Uploaded to: SVG Repo, www.svgrepo.com, Transformed by: SVG Repo Mixer Tools -->
<svg version="1.1" id="Layer_1" xmlns="http://www.w3.org/2000/svg" xmlns:xlink="http://www.w3.org/1999/xlink" viewBox="0 0 511.998 511.998" xml:space="preserve" width="800px" height="800px" fill="#000000">
<g id="SVGRepo_bgCarrier" stroke-width="0"/>
<g id="SVGRepo_tracerCarrier" stroke-linecap="round" stroke-linejoin="round"/>
<g id="SVGRepo_iconCarrier"> <rect style="fill:#ffffff;" width="511.998" height="511.998"/> <polygon style="fill:#FF931E;" points="440,320 440,144 240,144 240,320 368,320 384,336 400,320 "/> <g> <rect x="223.744" y="8.365" style="fill:#8CC63F;" width="279.888" height="111.331"/> <polyline style="fill:#8CC63F;" points="399.586,399.586 503.634,399.586 503.634,503.634 279.931,503.634 279.931,399.586 368.372,399.586 "/> <polyline style="fill:#8CC63F;" points="128.021,320.51 208.138,320.51 208.138,191.49 8.366,191.49 8.366,320.51 95.767,320.51 "/> <polyline style="fill:#8CC63F;" points="136.345,392.302 208.138,392.302 208.138,503.634 8.366,503.634 8.366,392.302 88.483,392.302 "/> <polyline style="fill:#8CC63F;" points="440.164,320.51 503.634,320.51 503.634,191.49 440.164,191.49 "/> <polyline style="fill:#8CC63F;" points="128.021,119.698 175.883,119.698 175.883,8.366 8.366,8.366 8.366,119.698 80.159,119.698 "/> </g> <circle style="fill:#FF931E;" cx="103.996" cy="47.997" r="16"/> <path style="fill:#FF7BAC;" d="M80,120L80,120c0,8.837,7.164,16,16,16h16c8.837,0,16-7.164,16-16l0,0 c0-8.837-7.164-15.999-16-15.999H96C87.163,104,80,111.164,80,120z"/> <g> <circle style="fill:#FF931E;" cx="111.997" cy="319.999" r="16"/> <circle style="fill:#FF931E;" cx="383.998" cy="383.998" r="16"/> </g> <path style="fill:#FF7BAC;" d="M360,455.999L360,455.999c0,8.837,7.164,16,16,16h16c8.837,0,16-7.164,16-16l0,0 c0-8.837-7.164-16-16-16h-16C367.164,440,360,447.163,360,455.999z"/> <g> <polygon style="fill:#39B54A;" points="56,120 8,120 8,8.355 112,8.355 "/> <polygon style="fill:#39B54A;" points="271.999,120 224,120 224,8.355 328,8.355 "/> <polygon style="fill:#39B54A;" points="48,320 8,320 8,192.355 112,192.355 "/> <polygon style="fill:#39B54A;" points="48,503.644 8,503.644 8,392 104,392 "/> <polygon style="fill:#39B54A;" points="320.814,503.644 280.815,503.644 280.815,392 376.815,392 "/> </g> <path d="M511.957,128.021H216.462V0.043h295.495V128.021z M232.069,112.414H496.35V15.65H232.069L232.069,112.414L232.069,112.414z"/> <path d="M0.043,128.021h73.548c3.299,9.189,12.098,15.782,22.41,15.782h16c10.311,0,19.109-6.592,22.409-15.782h49.798V0.043H0.044 v127.979H0.043z M112,128.196H96c-4.52,0-8.197-3.676-8.197-8.196c0-4.441,3.552-8.06,7.963-8.185v7.883h15.607v-7.894H112 c4.52,0,8.196,3.677,8.196,8.197S116.52,128.196,112,128.196z M95.804,48c0-4.52,3.676-8.197,8.196-8.197 c4.52,0,8.197,3.677,8.197,8.197s-3.677,8.197-8.197,8.197C99.48,56.197,95.804,52.519,95.804,48z M15.65,15.65H168.6v96.764 h-34.043c-3.176-9.416-12.083-16.218-22.557-16.218h-0.627V70.63c9.527-3.112,16.43-12.077,16.43-22.629 c0-13.126-10.678-23.804-23.804-23.804c-13.125,0-23.803,10.678-23.803,23.804c0,10.233,6.491,18.976,15.57,22.335v25.867 c-10.371,0.101-19.172,6.866-22.323,16.212H15.65V15.65z"/> <path d="M407.804,383.979c-0.011-13.116-10.685-23.782-23.803-23.782s-23.792,10.667-23.803,23.782h-87.549v127.979h239.31V383.979 H407.804z M392.302,447.818c4.378,0.161,7.894,3.764,7.894,8.181c0,4.52-3.677,8.196-8.197,8.196H376 c-4.52,0-8.197-3.676-8.197-8.196c0-4.52,3.677-8.197,8.197-8.197h0.695v7.968h15.607V447.818z M384,375.803 c4.52,0,8.197,3.677,8.197,8.197c0,4.52-3.677,8.197-8.197,8.197c-4.52,0-8.197-3.677-8.197-8.197 C375.803,379.481,379.481,375.803,384,375.803z M496.35,496.35H288.255v-96.764h77.771c2.816,3.241,6.492,5.716,10.669,7.067v25.544 H376c-13.126,0-23.804,10.678-23.804,23.804c0,13.125,10.678,23.803,23.804,23.803H392c13.126,0,23.804-10.678,23.804-23.803 c0-13.025-10.515-23.632-23.501-23.796v-25.896c3.762-1.405,7.065-3.745,9.654-6.721h94.394L496.35,496.35L496.35,496.35z"/> <path d="M384,347.036l-19.232-19.232H232.196V136.196h215.608v191.606h-44.571L384,347.036z M247.803,312.196h123.429l12.769,12.769 l12.768-12.769h35.428V151.804H247.803V312.196z"/> <polygon points="511.957,327.793 455.772,327.793 455.772,312.186 496.35,312.186 496.35,199.814 455.772,199.814 455.772,184.207 511.957,184.207 "/> <rect x="264.323" y="168.599" style="fill:#FFFFFF;" width="119.655" height="15.607"/> <rect x="264.323" y="192.53" width="31.214" height="15.607"/> <rect x="264.323" y="279.93" width="15.607" height="15.607"/> <rect x="288.254" y="279.93" style="fill:#FFFFFF;" width="15.607" height="15.607"/> <rect x="312.185" y="279.93" width="15.607" height="15.607"/> <rect x="336.116" y="279.93" style="fill:#FFFFFF;" width="15.607" height="15.607"/> <rect x="360.047" y="279.93" width="15.607" height="15.607"/> <rect x="264.323" y="216.461" style="fill:#FFFFFF;" width="151.91" height="15.607"/> <rect x="264.323" y="240.392" width="47.862" height="15.607"/> <rect x="320.509" y="240.392" style="fill:#FFFFFF;" width="23.931" height="15.607"/> <rect x="351.723" y="240.392" width="64.51" height="15.607"/> <path style="fill:#FF7BAC;" d="M87.999,392L87.999,392c0,8.837,7.164,16,16,16h16c8.837,0,16-7.164,16-16l0,0 c0-8.837-7.164-16-16-16h-16C95.163,375.999,87.999,383.163,87.999,392z"/> <path d="M134.487,327.793h80.935V184.207H0.043v143.586h89.471c2.372,6.827,7.767,12.247,14.577,14.654v25.75H104 c-10.311,0-19.109,6.592-22.409,15.782H0.043v127.979h215.379V383.979h-73.012c-3.299-9.189-12.098-15.782-22.409-15.782h-0.303 v-25.678C126.607,340.15,132.09,334.689,134.487,327.793z M199.814,496.35H15.65v-96.764h65.794 c3.176,9.416,12.083,16.218,22.557,16.218h16c10.472,0,19.381-6.802,22.557-16.218h57.257V496.35z M120,383.804 c4.52,0,8.196,3.676,8.196,8.196c0,4.52-3.676,8.197-8.196,8.197h-16c-4.52,0-8.196-3.677-8.196-8.197s3.676-8.196,8.196-8.196 h0.091v8.499h15.607v-8.499H120z M15.65,199.814h184.164v112.372H134.48c-3.241-9.298-12.091-15.989-22.48-15.989 s-19.237,6.692-22.478,15.989H15.65V199.814z M111.999,311.804c4.52,0,8.197,3.676,8.197,8.196c0,4.52-3.677,8.197-8.197,8.197 c-4.52,0-8.196-3.677-8.196-8.197C103.803,315.48,107.48,311.804,111.999,311.804z"/> </g>
</svg>